<svg width="44" height="44" viewBox="0 0 44 44" fill="none" xmlns="http://www.w3.org/2000/svg">
<circle cx="22" cy="22" r="22" fill="#EEEEEE"/>
<path fill-rule="evenodd" clip-rule="evenodd" d="M25.0254 13V16.922H18.9435V13C18.9435 11.3643 20.3063 10 21.9844 10C23.6625 10 25.0254 11.3643 25.0254 13ZM16.9435 13C16.9435 10.2386 19.223 8 21.9844 8C24.7458 8 27.0254 10.2386 27.0254 13V16.922V17.2417H29.3527C30.4203 17.2417 31.2997 18.0802 31.3505 19.1466L31.9665 32.0841C32.0208 33.2248 31.1107 34.1793 29.9688 34.1793H14C12.8581 34.1793 11.948 33.2248 12.0023 32.0841L12.6184 19.1466C12.6692 18.0802 13.5485 17.2417 14.6161 17.2417H16.9435V16.922V13ZM14.6161 19.2417H29.3527L29.9688 32.1793H14L14.6161 19.2417Z" fill="black" fill-opacity="0.8"/>
</svg>
