<svg width="60" height="60" viewBox="0 0 60 60" fill="none" xmlns="http://www.w3.org/2000/svg">
<path d="M30.1298 59.5667C46.4028 59.5667 59.5946 46.3442 59.5946 30.0333C59.5946 13.7225 46.4028 0.5 30.1298 0.5C13.8569 0.5 0.665115 13.7225 0.665115 30.0333C0.665115 46.3442 13.8569 59.5667 30.1298 59.5667Z" fill="white"/>
<path d="M47.9882 22.4V37.6667C47.9882 38.2 47.5559 38.6333 47.0238 38.6333C46.4917 38.6333 46.0594 38.2 46.0594 37.6667V22.4C46.0594 20.6 44.5961 19.1333 42.8003 19.1333C41.0045 19.1333 39.5412 20.6 39.5412 22.4V37.6667C39.5412 40.5333 37.2133 42.8667 34.3533 42.8667C31.4933 42.8667 29.1654 40.5333 29.1654 37.6667V22.4C29.1654 20.6 27.7021 19.1333 25.9063 19.1333C24.1105 19.1333 22.6473 20.6 22.6473 22.4V37.6667C22.6473 40.5333 20.3193 42.8667 17.4593 42.8667C14.5993 42.8667 12.2714 40.5333 12.2714 37.6667V22.4C12.2714 21.8667 12.7037 21.4333 13.2358 21.4333C13.7679 21.4333 14.2003 21.8667 14.2003 22.4V37.6667C14.2003 39.4667 15.6635 40.9333 17.4593 40.9333C19.2552 40.9333 20.7184 39.4667 20.7184 37.6667V22.4C20.7184 19.5333 23.0463 17.2 25.9063 17.2C28.7663 17.2 31.0942 19.5333 31.0942 22.4V37.6667C31.0942 39.4667 32.5575 40.9333 34.3533 40.9333C36.1491 40.9333 37.6124 39.4667 37.6124 37.6667V22.4C37.6124 19.5333 39.9403 17.2 42.8003 17.2C45.6603 17.2 47.9882 19.5333 47.9882 22.4Z" fill="black"/>
</svg>
