<svg width="215" height="215" viewBox="0 0 215 215" fill="none" xmlns="http://www.w3.org/2000/svg">
<rect width="215" height="215" fill="#F5FE7D"/>
<path d="M108 73.6428C86.2889 73.6428 68.625 86.2998 68.625 101.857C68.625 117.413 86.2889 130.071 108 130.071L110.33 130.08C111.876 130.08 112.887 130.039 114.467 129.802L117.619 129.35L119.641 131.805C120.57 132.932 125.314 136.841 130.549 139.358C129.485 136.534 128.7 133.45 128.63 130.4L128.602 130.232V126.298L131.666 124.727C141.65 119.604 147.375 111.269 147.375 101.857C147.375 86.2997 129.711 73.6428 108 73.6428ZM108 68C132.855 68 153 83.1594 153 101.857C153 113.501 146.122 123.648 134.228 129.748C134.228 129.82 134.25 129.872 134.25 129.953C134.25 135.012 137.077 140.574 138.734 143.438H138.729C138.86 143.745 138.938 144.083 138.938 144.444C138.938 145.862 137.798 147 136.388 147C136.176 147 135.838 146.956 135.714 146.956C135.685 146.956 135.668 146.956 135.671 146.965C126.882 145.524 117.218 137.734 115.296 135.384C113.32 135.679 111.985 135.723 110.332 135.723C109.634 135.723 108.882 135.714 108 135.714C83.1487 135.714 63 120.558 63 101.857C63 83.1595 83.1487 67.9999 108 68Z" fill="black"/>
</svg>
