<svg width="215" height="215" viewBox="0 0 215 215" fill="none" xmlns="http://www.w3.org/2000/svg">
<rect width="215" height="215" fill="#C3D5FD"/>
<path d="M143.005 71H70.7009C64.2466 71 59 76.2466 59 82.7009V132.118C59 138.572 64.2466 143.819 70.7009 143.819H142.985C149.439 143.819 154.686 138.572 154.686 132.118V82.7207C154.706 76.2664 149.459 71 143.005 71ZM149.36 132.118C149.36 135.622 146.509 138.473 143.005 138.473H70.7009C67.1965 138.473 64.3456 135.622 64.3456 132.118V82.7207C64.3456 79.2163 67.1965 76.3654 70.7009 76.3654H142.985C146.489 76.3654 149.34 79.2163 149.34 82.7207V132.118H149.36Z" fill="black"/>
<path d="M119.346 106.796L142.747 85.8092C143.836 84.8193 143.935 83.1364 142.945 82.0277C141.955 80.9388 140.273 80.8398 139.164 81.8297L106.892 110.795L100.596 105.172C100.577 105.152 100.557 105.132 100.557 105.113C100.418 104.974 100.28 104.855 100.121 104.737L74.5022 81.8099C73.3935 80.82 71.7106 80.919 70.7207 82.0277C69.7307 83.1364 69.8297 84.8193 70.9385 85.8092L94.6174 106.974L71.0374 129.049C69.9683 130.059 69.9089 131.742 70.9187 132.83C71.4532 133.385 72.166 133.682 72.8787 133.682C73.532 133.682 74.1854 133.444 74.7002 132.969L98.6365 110.577L105.13 116.378C105.645 116.833 106.279 117.051 106.912 117.051C107.546 117.051 108.199 116.814 108.694 116.358L115.366 110.379L139.164 132.989C139.679 133.484 140.352 133.721 141.005 133.721C141.718 133.721 142.411 133.444 142.945 132.89C143.955 131.821 143.915 130.118 142.846 129.108L119.346 106.796Z" fill="black"/>
</svg>
