<svg width="215" height="215" viewBox="0 0 215 215" fill="none" xmlns="http://www.w3.org/2000/svg">
<rect width="215" height="215" fill="#C4E9C0"/>
<g clip-path="url(#clip0_1_35)">
<path d="M129.547 66H85.4531C83.7334 66 82.084 66.6832 80.868 67.8992C79.6519 69.1153 78.9688 70.7646 78.9688 72.4844V142.516C78.9688 144.235 79.6519 145.885 80.868 147.101C82.084 148.317 83.7334 149 85.4531 149H129.547C131.267 149 132.916 148.317 134.132 147.101C135.348 145.885 136.031 144.235 136.031 142.516V72.4844C136.031 70.7646 135.348 69.1153 134.132 67.8992C132.916 66.6832 131.267 66 129.547 66ZM129.547 142.516H85.4531V72.4844H129.547V142.516Z" fill="black"/>
<path d="M107.5 136.031C109.792 136.031 111.65 134.289 111.65 132.141C111.65 129.992 109.792 128.25 107.5 128.25C105.208 128.25 103.35 129.992 103.35 132.141C103.35 134.289 105.208 136.031 107.5 136.031Z" fill="black"/>
</g>
<defs>
<clipPath id="clip0_1_35">
<rect width="83" height="83" fill="white" transform="translate(66 66)"/>
</clipPath>
</defs>
</svg>
